<?xml version="1.0" encoding="UTF-8"?><svg id="Layer_5" xmlns="http://www.w3.org/2000/svg" viewBox="0 0 2014.35 1714.97"><path d="M706.38,904.2c-8.28-20.85-26.53-32.52-46.11-41.35,34.15-15.96,39.82-63.32,21.92-93.57-16.59-28.04-54.5-37.07-85.15-35.51v-64.28l-38.99,1.05v63.23h-30.03c-1.15,0-1.51-2.57-1.63-3.63-1.61-13.75-.42-37.19,0-51.73.05-1.79,2.38-8.91-.48-8.91h-37.41v64.28h-77.98v38.99h31.09c2.29,0,10.87,4.34,12.69,6.27,2.15,2.27,5.75,11.45,5.75,14.28v50.05c-10.93-8.47-23.64-12.6-36.05-18.22-3.68-1.67-6.94-4.59-10.64-6.22-6.77-2.98-14.48-4.28-21.8-5.06-.69,5.69,11.08,6.73,11.58,7.38,1.33,1.75-4.91,3.13-1.08,5.82,2.62,1.84,12.71-3.07,16.58,1.33l40.35,30.25,1.07,2.09c-1.14,27.78,1.49,56.71.04,84.35-.29,5.58-1.12,16.36-2.88,21.36-5.48,15.58-28,13.62-41.32,14.01l-7.49,42.04h80.09v64.28h37.94v-64.28h31.61v64.28h38.99l.11-64.18c38.96-2.22,91.29-8.06,108.18-49.35,8.12-19.85,9-49.04,1.05-69.04ZM627.49,748.93c.39-1.04.71-3.29,2.21-1.47.14.16.09,2.99.49,4.24,4.73,14.48,14.88,30.3,2.14,44.24l3.73-13.12c-.21-10.8-12.34-23.97-8.58-33.89ZM559.11,773.82c.65-.4,13.25-.21,15.32-.05,7.95.61,29,6.03,33.21,13.16,1.65,2.79-1.31,11.63-3.2,12.78-.68.41-6.29-2.46-8.05-2.65-20.19-2.15-25.56,22.88-4.17,19.9,16.57-2.31,21.86-34.53,27.9-47.99.56-1.25-.49-1.9,2.19-1.47,4.8,10.43,12.63,18.17,5.11,29.86-1.47,2.29-5.35,4.77-5.93,6.71-1.23,4.06.93,7.13.83,10.32-.68,22.51-17.05,32.53-36.65,38.16-2.5.72-18.64,4.66-19.71,4.51-.49-.07-1.54-1.06-1.09-2.1.9-2.09,4.01-4.79,5.26-8.46,1.17-3.43,2.08-7.3,1.55-10.96-.58-4-4.29-6.68-4.99-9.78-1.26-5.62-.47-15.39-1.4-21.79-1.48-10.23-5.28-17.77-9.37-26.98,5.64.35,2.91-3,3.17-3.16ZM552.77,782.24c4.26,12.11,8.65,25.49,2.63,37.93-9.6-6.26-5.2-8.71.49-15.15-.5-2.93-14.47-5.7-9.5-17.07.55-1.26,4.81-6.87,6.39-5.71ZM525.39,823.86v-51.11h26.34l-8.86,11.69c-1.38,1.57-1.94,8.61-2.9,9.23-1.26.81-7.27.19-10.07,3.61-2.29,2.81-1.74,15.85.91,17.44,2.58,1.54,6.27-2.64,5.11,4.39,5.71-7.62,9.95,3.2,4.7,4.19-3.86.73-11.91,3.02-14.77,3.16-3.33.17-.48-1.94-.48-2.61ZM540.01,962.84c-.53,4.42-3.99,8.44-4.12,10.74-.22,3.94,4.16,4.14,4.24,7.82h-15.81v-91.68c2.57.31,7.27-.99,8.96,1.05,1,1.21,9.74,26.82,9.96,29.11.56,5.77-3.53,10.02-4.17,15.68-1.03,9.09,1.95,18.87.93,27.28ZM525.39,857.06c-.95-7.33-1.4-14.66-1-22.08,9.52-1.82,20.68-3.28,23.68,8.34.77,3-.05,13.73-3.19,13.73h-19.49ZM578.08,979.29c-10.04,1.8-20.2,2.67-30.42,1.98-.48-.31-1.99-7.57-2.12-8.95-1.51-15.8,7.78-41.03,10.1-58.13,1.16-8.57,1.81-16.82,1.36-25.52,17.36-.46,35.29.43,51.62,6.87,10.48,4.14,23.54,12.45,24.24,24.74l-24.94-8.24-21.41-11.77c-7.48,25.49-13.4,52.42-8.43,79.02ZM591.78,940.85c.85-2.06,9.21-7.86,11.55-8.48,13.46-3.57,20,6.48,21.1,18.47-.67.73-11.52-6.15-13.7-6.84-5.88-1.86-10.55-1.18-16.34-1.59-1.16-.08-3.5.58-2.61-1.57ZM615.28,999.52c-12.24-6.76-18.37-22.58-19.28-36.03,12.39,12.9,25.72,21.25,44.5,18.69,7.03-.96,13.19-4.88,19.76-7.1-5.98,17.76-25.99,34.92-44.98,24.43ZM657.61,951.89c-6.58-.44-12.13,2.33-18.41,2.64,8.52-19.3,31.25-16.75,34.76,3.68-4.45-3.22-10.82-5.96-16.34-6.32Z"/><path d="M353.9,674.51c28.08-4.77,19.88-51.12-11.09-45.86-27.7,4.71-21.95,51.48,11.09,45.86ZM334.25,634.84c7.36-4.13,15.69.44,21.11,5.52,5.93,5.56,15.64,18.7,8.83,26.53-13.67,15.7-45.39-23.39-29.94-32.05ZM402.71,1152.09c9.11.53,9.05-13.59,1.16-13.41-7.57.17-9.37,12.93-1.16,13.41ZM361.3,600.78c6.49-1.93,5.06-14.09-3.74-12.24-8.14,1.71-5.57,15,3.74,12.24ZM309.4,705.81c16.36,5.61,30.85-8.01,28.41-24.73-2.53,1.29-1.85,5.58-2.93,8.12-11.84,27.86-58.69-13.99-27.62-26.04-1.24,13.85,17.27,8.37,11.48-.4-3.83-5.8-14.68-2.06-18.89,1.95-14.18,13.52-8.62,34.87,9.55,41.1ZM815.93,1109.72c-18.58-6.5-38.03-16.64-56.66-22.37-2.73-.84-5.46-1.78-8.37-1.62-2.65,2.73,10.73,22.75,12.82,26.68,3.54,6.66,18.07,32.57,17.69,37.99-.19,2.69-2.05,5.59-3.12,8.02,1.82.48,2.11-.73,3.17-1.56,1.88-1.48,13.04-13.34,13.68-14.77.21-.46.27-1.73-.51-1.56-2,2.24-8.16,5.6-10.87,4-1.03-.61-9.85-16.39-9.21-17.67.3-.6,7.9-9.05,8.96-10.09,2.44-2.38,5.53-4.07,7.94-6.51,7.37,4.21,25.73,5.53,16.36,17.1-.23.71,1,.76,1.56.51.82-.37,10.51-11.34,12.1-13.19.94-1.08,7.08-8.17,6.34-8.93-3.83,2.61-6.74,5.55-11.87,3.98ZM786.73,1111.56c-1.8,2.62-9.48,10.35-12.21,13.08-.87.87-.92,1.51-2.55,1.13.18-4.22-14.71-27.23-13.7-28.45l29.49,11.61c.43,1.59-.42,1.75-1.03,2.64ZM236.23,731.63c11.17,1.42,9.42-14.9-2.01-11.35-5.17,1.6-4.76,10.49,2.01,11.35ZM257.76,741.65c2.53.69,23.47,11.86,26.26,13.77,3.85,2.63,2.48,3.7,2.17,7.86l2.3-2.43,8.22-15.48-3.91,3.01c-13.94-3.4-26.26-13.45-39.76-18.85l-6.9,15.83c5.44-1.95,4.55-5.63,11.62-3.7ZM840.96,775.9c-8.82,8.24,2.19,27.98-7.83,31.16-4.32,1.37-7.74.15-9.97-3.82-5.55-9.9,5.8-21.95,4.65-23.09-2.04.79-13.08,3.58-13.69,4.22-1.68,1.78,2.25,2.36,2.95,3.85,1.96,4.16,1.46,10.31,4.23,15.83,7.07,14.05,25.79,10.91,26.59-4.38.34-6.5-4.55-24.64,9.74-20.36,9.83,2.94,3.28,17.75-1.36,22.95l13.69-4.22c.2-1.95-3.5-1.35-4.06-2.24-.5-.8-.08-6.86-.61-9.4-2.15-10.24-15.51-18.74-24.32-10.5ZM253.65,704.1c.4.68,11.44,6.32,11.51,7.1.21,2.49-4.32,7.51-3.21,10.97,2.36-.74,4.06-8.03,5.85-8.42,2.24-.49,24.68,17.54,30.75,18.74,8.51,1.68,14.16-4.86,14.05-12.97-.03-2.43-.47-9.83-3.22-7.37,2.96,5.62.58,14.26-6.79,13.2-7.12-1.02-21.29-16.37-29.05-19-.91-1.26,12.91-14.87,6.84-14.71-1.05.03-7.48,10.39-9.62,11.44-3.11.61-12.77-10.36-15.13-8.3.51,2.43-3,7.59-1.98,9.32ZM292.47,1044.07c-5.36,6.49,4.57,13.75,10.29,7.67,5.57-5.92-4.49-14.7-10.29-7.67ZM751.42,684.24c.94-2.67-2.19-5.41-2.48-8.18-.64-6.26,14.12-8.94,18.29-11.54l15.84,16.58c.56.75.55,1.47.33,2.35-.24.95-8.48,16.63-9.31,17.15-4.33,2.73-6.49-4.65-10.55-3.2,5.22,6.36,12.11,12.37,16.84,18.99,2.55,3.58,12.34,22.68,14.25,23.69.47.25,1.79.21,1.56-.51-1.42-2.43-3.96-4.81-2.2-7.42.81-1.2,22.62-15.92,24.05-16.14,1.47-.23,11.9,3.76,11.86,4.59-14.07,7.77,3.49,16.78,7.96,6.81,2.93-6.55-11.91-14.03-17.41-12.61.79-2.61,8.96-2.96,8.46-5.78-.53-3.05-7.78-10.13-10.56-12.12-.16,2.77,2.3,5.52.08,7.98-7.94,3.2-21.15,16.06-28.53,17.93-4.06,1.02-7.89-5.15-8.4-8.59-.66-4.49,1.62-8.42,3.27-12.42,7.45-18.04,19.18-35.75,27.84-53.32,1.59-5.21-7.45-1.67-10.27-.76-12.9,4.16-48.37,22.16-59.08,21.53-3.29-.19-6.03-2.44-9.22-2.89,5.11,6.53,10.4,13.19,17.39,17.9ZM799.36,651.59c-4.87,8.24-8.63,17.83-13.47,26.04-.37.64-.02,2.06-1.79,1.33-.93-.38-13.24-14.27-13.16-15.28l28.43-12.1ZM856.29,884.98l13.01,10.99,12.26-11.5c-5-2.14-9.01-7.16-12.11-11.6l-13.16,12.11ZM860.58,997.84c-4.51,3.9-7.54,12.52-14.32,13.15-10.35.97-11.75-12.49-2.64-16.41,2.18-.94,11.61-1.58,11.57-3.17l-12.61-5.79c2.23,5.2-3.11,7.3-5.13,11.22-5.58,10.87,1.69,27.86,15.96,22.28,7.34-2.87,16.84-24.4,26.06-14.02,9.27,10.43-9.69,19.23-17.93,20.58-1.1,1.4,13.01,7.03,14.75,7.35-4.66-8.16-.35-6.9,3.01-11.2,11.82-15.13-3.6-37.07-18.72-23.99ZM841.07,741.16c-1.42,2.23-23.67,10.62-28.36,13.86-10.01,6.91-6.45,20.64,4.1,22.95.96.21,3.93.78,3.61-.98-4.7-.75-11.08-6.24-7.45-11.16,4.16-5.64,25.43-10.24,31.28-16.15,2.03-.56,1.2.37,1.7,1.25,1.43,2.49,4.5,11.97,5.05,12.35.88.6,4.2-.52,4.18-1.58-.01-.73-6-11.15-7.33-12.65l17.87-8.43c-5.62-9.82-15.92-.56-20.29-1.73-3.66-.98-4.21-6.44-5-7.22-4.48-4.49.96,8.97.63,9.5ZM394.2,639.97l-22.17-33.71-13.13,10.02c6.84-.12,6.67-2.13,11.4,3.34,2.12,2.46,14.82,22.17,15.55,24.54,1.54,5.01-2.04,4.41-2.7,8.47l20.01-12.63c-3.04-.05-6.36,2.5-8.95-.02ZM863.65,1037.26c.65,3.4,1.4,10.14-2.86,11.42-6.1,1.83-26.86-13.65-33.96-15.73-1.43-2,4.26-8.68,5.25-10.93.6-1.38,1.67-3.28-.6-3.73-2.82-.56-6.15,11.36-9.45,12.39l-14.23-7.12c-.62,2.77-2.13,6.89-.55,9.5,1.83,3.03,12.1,2.13,10.85,8.63-1.98,10.28-3.81,5.44-8.52,9.2-4.92,3.92,1.19,16.83.3,17.97l-8.43-4.81c-1.2.55-7.95,14.72-7.36,15.34,5.1-1.17,3.89-5.81,10.24-3.39,8.15,3.11,18.71,13.21,27.24,17.02,3.77,2.98-1.15,5.33-.08,8.5,1.63-2.84,14.23-19.3,14.21-20.54,0-.23-1.66-1.86-2.07-1.58-.48,2.72-3.8,6.64-6.63,6.19-1.48-.23-24.75-14.4-25.53-15.68-1.27-2.11-.63-7.99-.04-10.59.97-1.66,8.27,2.54,9.86-2.8,1.42-4.78-2.38-5.4-2.77-7.29-.35-1.65,2.99-8.69,4.53-8.7,7.34,3.53,25.42,16.43,32.78,16.7,3.92.14,9.84-4.21,10.73-8.08.83-3.6.33-9.45-2.92-11.89ZM540.6,565.24c-18.62-26.09-58.62,8.46-34.86,32.22,20.56,20.56,52.21-7.91,34.86-32.22ZM519.87,557.99c18.07-2.05,22.91,49.1-.06,43.83-11.04-2.53-16.87-41.91.06-43.83ZM720.58,650.23c1.19-.29,4.86-1.36,5.02-2.86-19.03,4.81-30.2-10.56-19.93-27.34,3.11-2.25,25.98,16.29,28.32,14.64,16.14-30.34-28.86-42.97-39.86-14.04-7,18.43,8.05,34.11,26.45,29.61ZM726.64,628.39l-18.93-11.06c13.59-18.83,30.52-10.63,18.93,11.06ZM665.08,559.96c-1.7,7.85-15.91,43.59-20.05,50.58-.69,1.17-1.45,3.06-2.68,3.65-1.93.93-5.15-.43-5.27,1.56l18.96,6.32c-1.79-2.73-3.46-2.8-2.98-6.55.22-1.78,8.87-23.65,9.9-24.98,3.32-4.33,12.32-4.07,16.33-.66,3.98,3.38,2.96,5.96,1.73,10.3-1.07,3.77-7.87,21.55-9.72,23.99-2.69,3.56-3.48.98-6.83,1.6,5.69,3.5,12.58,5.8,18.96,7.9-1.27-2.28-4.33-2.2-3.94-5.6.8-6.79,9.33-18.94,10.84-27.01,1.21-6.44,1.95-11.39-4.05-15.02-8.72-5.27-13.41-2.14-21.81,1.26-1.68-1.76,14.54-31.78,12.64-33.71l-17.92-4.21c3.76,4.34,7.39,3.55,5.87,10.58ZM708.43,1204.63c-5.83-1.32-12.24-32.13-21.76-35.19-9.79-3.15-19.5,8.62-20.6,17.44l-14.32-31.53c-1.34-.96-13.51,5.01-14.67,7.29,2.37.16,5.14-.55,7.38.53,3.68,1.77,21.59,48.48,25.93,55.3,1.69,4.16-2.43,3.87-3.8,6.34l20.01-7.38c-.19-2.23-3.45.07-5.31-.43-5.17-1.4-10.5-22-14.17-26.85,1.58-10.69,12.19-18.69,19.69-7.16,1.84,2.83,11.16,22.47,11.18,24.65.03,2.56-3.41,3.39-4.01,5.58l20.01-8.43c-.29-2.38-3.81.24-5.57-.15ZM421.06,1183.71c6.24-2.93,17.15-.23,16.82,7.81-.1,2.41-9.06,25.91-10.65,28.4-.5.79-1.16,1.92-1.97,2.31-1.79.88-5.03-1.98-5.25.46l20.01,7.38c-.61-2.27-5.03-3.98-4.83-6.38.37-4.35,8.16-18.15,9.8-23.93,1.17-4.11,2.08-8.94,1.12-13.19-1.98-8.73-20.09-9.97-25.06-2.87ZM422.07,1173.25l-14.71-4.27c-.47.37,4.77,4.68,5.01,6.99.21,2.01-11.75,32.01-13.34,33.42-2.21,1.96-6.46-.88-7.47,1.73l18.96,6.32-2.99-4.53c1.9-4.6,15.99-37.64,14.54-39.65ZM423.46,582.23c-6.25-1.37-13.92,3.67-16.99,8.91-3.81,6.51-1.53,14.24-7.04.34l-14.19,7.94c5.7.38,7.51.29,10.73,5.06,1.41,2.08,11.89,23.98,12.24,25.75.83,4.15-.77,4.69-2.96,7.63l18.96-7.38c-.32-2.35-4.38-.26-6.1-1.26-2.87-1.67-9.92-22.32-13.37-25.99-.48-8.99,11.69-18.62,18.28-9.99,1.72,2.25,11.98,24.22,12.4,26.7.57,3.3-2.69,3.65-3.82,6.33l21.07-8.43-8.15-1.31c-5.24-7.66-11.64-32.25-21.06-34.31ZM380.11,1199.26l19.88-37.66-15.81-5.27c2.37,3.4,5.06,4.75,3.76,9.48-2.25,8.18-11.43,19.1-14.89,27.32l-5.72,4.27,16.85,8.43c-.99-2.5-4.72-3.46-4.07-6.58ZM525.11,1199.78c-26.51,4.52-24.32,51.7,8.96,46.89,27.83-4.02,25.73-52.8-8.96-46.89ZM532.19,1245.85c-21.4,1.47-17.89-42.27-4.98-45.07,21.68-4.71,19.78,44.06,4.98,45.07ZM373.68,1155.75c-.96-12.17-12.31-21.98-24.48-21.32-23.38,1.28-33.24,36.45-8.8,46.17,17.08,6.79,34.7-6.75,33.27-24.85ZM333.84,1172.42c-4.68-9.9,9.83-31.58,19.47-33.78,3.76-.86,8.11-.52,10.86,2.39,13.22,13.93-19.91,53.43-30.33,31.39ZM575.95,1207.95c-2.78-.77-1.61-8.88-2.1-9.47l-16.85,3.17c3.43,3.94,8.38,1.16,9.42,7.96-1.37,9.65,4.3,24.55,2.22,33.49-.45,1.95-5.24.56-5.31,2.79,7.91.13,16.47-2.45,24.22-1.04.75-3.95-5.23-1.4-7.75-2.25-4.31-1.45-2.6-25.01-4.95-29.95-.83-2.56,8.62-12.16,9.54-11.01-1.36,8.55,10.71,12.55,10.67,2.63-.05-12.6-18.17-5.76-19.1,3.68ZM745.63,1177.94c-8.93,11.86-24.18,7.19-29.58-5.22l25.35-16.42c-4.21-10.27-16.8-13.52-26.33-7.88-3.02,2.85,4.14.32,5.69.53,2.77.37,11.24,7.58,11.23,10.02,0,2.67-14.4,9.75-16.4,13.14-4.38-6.02-7-14.39-2.64-21.05-5.33,1.62-8.75,11.76-8.36,17.22,2.18,30.72,47.44,32.79,45.23-.37l-4.19,10.02ZM493.77,1197.41c3.51-7.78,2.59-27.67,15.36-23.2-5.21,18.45,16.04,12.58,8.33,2.15-4.38-5.92-16.95-5.48-22.55-1.53-7.6,5.37-8.88,18.58-9.77,19.22-.98.7-7.39,1.21-9.27,2.32.7,3.55,7.83,1.49,8.43,2.1-1.52,6.31-3.95,35.15-7.99,37.85-1.98,1.33-5.28.19-5.71,2.18l21.06,3.16c-.74-2.38-5.33-1.34-5.29-4.72,3.41-7.21,3.66-31.36,6.86-36.4,1.39-2.2,10.97,2.33,14.24,1.08.22-5.33-12-3.1-13.69-4.22ZM471.64,573.08c1.21,3.16,6.68,28.95,6.43,31.63-.45,4.83-4.26,3.61-6.42,6.82l26.33-5.27c-.99-2.22-5.37-.55-7.7-1.24-1.14-.34-1.63-1.03-2.26-1.95-1.04-1.51-9.24-34.47-7.95-35.78,2.85-.56,9.79-.88,11.94-2.09,1.11-.62.97-2.9.71-3.17-1.35-1.38-12.37,3.18-13.66,2.07-.62-6.38-8.06-25.8,3.67-25.34,2.64.1,2.38,7.45,5.78,9.09,1.63.79,4.91.47,6.07-.84,2.5-2.81-.55-9.49-4.52-10.24-11.54-2.17-22.17,4.98-22.22,17.18-.01,3.03,2.18,9.64,1.79,11.62-.21,1.04-10.25,3.79-7.46,6.99,1.16,1.34,7.35-4.99,9.48.54ZM568.83,600.22c-.97-.45-1.81-.95-2.17-2.03-1.19-3.5,1.43-19.25,1.92-24.07.13-1.28-1-2.85-.79-4.08.47-2.7,6.54-7.75,9.75-8.05,3.37-.31-1.47,2.92,2.07,6.39,7.45,7.29,13.09-6.51,6.25-10.45-7.13-4.11-12.32,3.42-17.25,7.24-.29-1.54.36-8.06-.01-8.43-.56-.56-13.46.41-15.81,0,1.02,2.09,4.1,1.92,5.87,4.13.69.86,1.48,1.56,1.53,2.78-2.92,9.39-.34,24.87-3.44,33.41-1.2,3.3-4.14,3.03-7.13,2.89-.31,1.07,4.48,2.1,4.74,2.1h20.55c-.47-1.93-3.96-.85-6.08-1.83ZM643.67,1226.65c-1.37-1.3-11.17-32.11-10.88-33.86,3.57-2.34,8.03-2.6,11.95-4.08,1.15-.43,3.67-.46,2.87-2.34-1.59-3.71-12.83,2.64-15.78,2.62l-4.75-15.8c-1.09,1.86-7.36,4.29-7.59,5.73-.41,2.53,4.08,10.44,3.82,11.55-.39,1.67-7.9,3.76-8.35,6.94,2.94.66,8.04-3.89,10.02-1.06,3.17,8.92,4.88,19.83,8.44,28.44,6,14.49,23.48,9.02,24.73-5.24-3.04,4.13-8.4,12.86-14.48,7.1ZM220.32,896.09c2.49-.01,9.51-9.23,12.1-11.11l-12.1-12.1-12.1,12.1c4.59,3.3,7.87,8.07,12.1,11.11ZM213.49,792.24c7.79,1.75,36.61,12.61,43.52,16.53,6.14,3.48,7.4,5.04,3.89,11.95l2.08.51c2.25-16.18,21.3-39.05,9.49-54.26-6.19-7.97-16.73-7.22-23.7-.53-2.17,2.09-2.98,4.82-4.5,7.05-.49.72-.74,3.1-2.35,1.37-.68-.74,3.91-12.8-2.08-19.52-4.29-4.81-12.06-4.43-17.26-1.39-11.2,6.55-16.81,33.37-21.75,45.15,5.07-5.49,3.5-8.91,12.65-6.86ZM264.41,772.93c11.5,7.31,9.63,18.74,2.85,28.84-2.19,1.04-23.77-11.01-28.5-10.05,1.47-13.54,10.71-28.3,25.65-18.79ZM234.9,764.5c10.03,6.51,5.5,16.14,1.65,25.04-1.36,1-24.11-8.19-27.27-10,4.36-12.11,11.48-24.22,25.62-15.04ZM271.84,1109.93c2.09-6.52,22.73-18.81,27.51-25.24,4.7,3.14,5.7,11.64,12.12,11.56l-8.29-13.02,12.51-11.19c-3.13.45-5.74-4.25-7.88-4.24-3.71,0-7.85,7.83-11.56,7.45-2.23-.23-4.4-3.82-6.89-4.27-.63,2.72,3.84,4.25,4.13,5.94.6,3.52-23.31,18.92-26.47,24.93-5.6,10.64,4.46,19.41,14.96,18.64-2.66-3.14-11.99-4.73-10.12-10.55ZM256.08,1051.94c5.53-9.96-2.39-21.33-1.51-22.06.1-.09,1.96-.1,2.09,0,.11.09.27,1.8,1.05,2.6,6.62,6.83,14.61,12.61,23.74,5.83,9.09-6.75,5.24-16.4,1.75-24.95-4.29-10.52-10.92-20.44-15.47-30.9-.92,3.3,2.92,9.71.26,12.37-2.03,2.03-25.3,12.75-29.91,14.88-3.93,1.81-19.31,9.5-22.08,9.65-3.28.19-4.17-3.12-6.11-5.42-.9-1.06-.02-2.65-2.74-1.96,7.59,11.99,15.61,42.93,30.52,46.91,6.99,1.87,14.9-.61,18.41-6.94ZM219.17,1029.83l28.95-13.51c.03,1.13.56,1.34,1.18,1.95-.08-1.11-.47-2.6.66-3.26l26.2-12.56c5.15,10.04,11.01,22.76-3.37,28.24-14.79,5.64-15.81-4.84-23.49-12.42.56,7.98,9.54,13.25,2.56,23.11-11.61,16.39-31.47,6.39-32.69-11.56ZM625.09,613.59c3.88.36,13.52-3.07,12.52-7.32-2.27,3.45-10.9,4.7-13.28,1.68-4.25-5.4,5.88-30.04,6.43-37.52l14.73,4.23c.09-2.69,2.87-3.23-.47-4.24-4.28-1.3-8.8-2.41-13.22-3.16l4.21-15.79c-15.08-2.98-8.3,6.28-12.08,11.62-1.12,1.58-7.89,2.08-10.05,2.08.46,2.98,8.3,1.93,8.47,3.76-1.8,11.83-18.55,42.66,2.73,44.65ZM326.45,1129.23c2.96,9.91,18.37.37,8.2-13.47-17.29-23.54-53.16-2.3-43.43,22.35,3.96,10.03,17.63,15.42,27.62,11.88l-10.25-1.85c-24.46-9.31.67-41.96,16.6-37.69,3.53.94,10.77,7.47,8.32,11.02-1.12,1.62-9.69-.99-7.07,7.76ZM253.44,1085.13l33.8-22.6c-3.92-4.8-7.48-10.07-12.63-13.68,2.49,6.68,3.55,7.26-2.21,12.02-3.06,2.53-22.76,16.48-25.19,17.07-3.06.73-4.59-3.21-6.86-4.85l-.51,1.56c4.78,4.4,7.31,11.25,11.35,16.06,1.01,1.2,1.18,2.91,3.4,2.39.36-.36-3.91-4.27-1.13-7.96Z"/></svg>